<svg width="101" height="60" viewBox="0 0 101 60" fill="none" xmlns="http://www.w3.org/2000/svg">
<path d="M10.7358 51H9.32671C9.24338 50.5947 9.09754 50.2386 8.88921 49.9318C8.68466 49.625 8.43466 49.3674 8.13921 49.1591C7.84754 48.947 7.52368 48.7879 7.16762 48.6818C6.81156 48.5758 6.44035 48.5227 6.05398 48.5227C5.34944 48.5227 4.71118 48.7008 4.13921 49.0568C3.57103 49.4129 3.11838 49.9375 2.78126 50.6307C2.44792 51.3239 2.28126 52.1742 2.28126 53.1818C2.28126 54.1894 2.44792 55.0398 2.78126 55.733C3.11838 56.4261 3.57103 56.9508 4.13921 57.3068C4.71118 57.6629 5.34944 57.8409 6.05398 57.8409C6.44035 57.8409 6.81156 57.7879 7.16762 57.6818C7.52368 57.5758 7.84754 57.4186 8.13921 57.2102C8.43466 56.9981 8.68466 56.7386 8.88921 56.4318C9.09754 56.1212 9.24338 55.7652 9.32671 55.3636H10.7358C10.6297 55.9583 10.4366 56.4905 10.1563 56.9602C9.87595 57.4299 9.52747 57.8295 9.1108 58.1591C8.69414 58.4848 8.22633 58.733 7.70739 58.9034C7.19224 59.0739 6.6411 59.1591 6.05398 59.1591C5.06156 59.1591 4.17898 58.9167 3.40626 58.4318C2.63353 57.947 2.02557 57.2576 1.58239 56.3636C1.13921 55.4697 0.917619 54.4091 0.917619 53.1818C0.917619 51.9545 1.13921 50.8939 1.58239 50C2.02557 49.1061 2.63353 48.4167 3.40626 47.9318C4.17898 47.447 5.06156 47.2045 6.05398 47.2045C6.6411 47.2045 7.19224 47.2898 7.70739 47.4602C8.22633 47.6307 8.69414 47.8807 9.1108 48.2102C9.52747 48.536 9.87595 48.9337 10.1563 49.4034C10.4366 49.8693 10.6297 50.4015 10.7358 51ZM22.831 53.1818C22.831 54.4091 22.6094 55.4697 22.1662 56.3636C21.723 57.2576 21.1151 57.947 20.3423 58.4318C19.5696 58.9167 18.687 59.1591 17.6946 59.1591C16.7022 59.1591 15.8196 58.9167 15.0469 58.4318C14.2742 57.947 13.6662 57.2576 13.223 56.3636C12.7798 55.4697 12.5582 54.4091 12.5582 53.1818C12.5582 51.9545 12.7798 50.8939 13.223 50C13.6662 49.1061 14.2742 48.4167 15.0469 47.9318C15.8196 47.447 16.7022 47.2045 17.6946 47.2045C18.687 47.2045 19.5696 47.447 20.3423 47.9318C21.1151 48.4167 21.723 49.1061 22.1662 50C22.6094 50.8939 22.831 51.9545 22.831 53.1818ZM21.4673 53.1818C21.4673 52.1742 21.2988 51.3239 20.9617 50.6307C20.6283 49.9375 20.1757 49.4129 19.6037 49.0568C19.0355 48.7008 18.3992 48.5227 17.6946 48.5227C16.9901 48.5227 16.3518 48.7008 15.7798 49.0568C15.2117 49.4129 14.759 49.9375 14.4219 50.6307C14.0885 51.3239 13.9219 52.1742 13.9219 53.1818C13.9219 54.1894 14.0885 55.0398 14.4219 55.733C14.759 56.4261 15.2117 56.9508 15.7798 57.3068C16.3518 57.6629 16.9901 57.8409 17.6946 57.8409C18.3992 57.8409 19.0355 57.6629 19.6037 57.3068C20.1757 56.9508 20.6283 56.4261 20.9617 55.733C21.2988 55.0398 21.4673 54.1894 21.4673 53.1818ZM25.2003 59V47.3636H26.6094V57.75H32.0185V59H25.2003ZM34.2003 59V47.3636H35.6094V57.75H41.0185V59H34.2003ZM43.2003 59V47.3636H50.223V48.6136H44.6094V52.5455H49.8594V53.7955H44.6094V57.75H50.3139V59H43.2003ZM62.1264 51H60.7173C60.634 50.5947 60.4882 50.2386 60.2798 49.9318C60.0753 49.625 59.8253 49.3674 59.5298 49.1591C59.2382 48.947 58.9143 48.7879 58.5582 48.6818C58.2022 48.5758 57.831 48.5227 57.4446 48.5227C56.7401 48.5227 56.1018 48.7008 55.5298 49.0568C54.9617 49.4129 54.509 49.9375 54.1719 50.6307C53.8385 51.3239 53.6719 52.1742 53.6719 53.1818C53.6719 54.1894 53.8385 55.0398 54.1719 55.733C54.509 56.4261 54.9617 56.9508 55.5298 57.3068C56.1018 57.6629 56.7401 57.8409 57.4446 57.8409C57.831 57.8409 58.2022 57.7879 58.5582 57.6818C58.9143 57.5758 59.2382 57.4186 59.5298 57.2102C59.8253 56.9981 60.0753 56.7386 60.2798 56.4318C60.4882 56.1212 60.634 55.7652 60.7173 55.3636H62.1264C62.0204 55.9583 61.8272 56.4905 61.5469 56.9602C61.2666 57.4299 60.9181 57.8295 60.5014 58.1591C60.0848 58.4848 59.617 58.733 59.098 58.9034C58.5829 59.0739 58.0317 59.1591 57.4446 59.1591C56.4522 59.1591 55.5696 58.9167 54.7969 58.4318C54.0242 57.947 53.4162 57.2576 52.973 56.3636C52.5298 55.4697 52.3082 54.4091 52.3082 53.1818C52.3082 51.9545 52.5298 50.8939 52.973 50C53.4162 49.1061 54.0242 48.4167 54.7969 47.9318C55.5696 47.447 56.4522 47.2045 57.4446 47.2045C58.0317 47.2045 58.5829 47.2898 59.098 47.4602C59.617 47.6307 60.0848 47.8807 60.5014 48.2102C60.9181 48.536 61.2666 48.9337 61.5469 49.4034C61.8272 49.8693 62.0204 50.4015 62.1264 51ZM63.7671 48.6136V47.3636H72.4943V48.6136H68.8352V59H67.4261V48.6136H63.7671ZM76.0781 47.3636V59H74.669V47.3636H76.0781ZM88.7216 53.1818C88.7216 54.4091 88.5 55.4697 88.0568 56.3636C87.6136 57.2576 87.0057 57.947 86.233 58.4318C85.4602 58.9167 84.5777 59.1591 83.5852 59.1591C82.5928 59.1591 81.7102 58.9167 80.9375 58.4318C80.1648 57.947 79.5568 57.2576 79.1136 56.3636C78.6705 55.4697 78.4489 54.4091 78.4489 53.1818C78.4489 51.9545 78.6705 50.8939 79.1136 50C79.5568 49.1061 80.1648 48.4167 80.9375 47.9318C81.7102 47.447 82.5928 47.2045 83.5852 47.2045C84.5777 47.2045 85.4602 47.447 86.233 47.9318C87.0057 48.4167 87.6136 49.1061 88.0568 50C88.5 50.8939 88.7216 51.9545 88.7216 53.1818ZM87.358 53.1818C87.358 52.1742 87.1894 51.3239 86.8523 50.6307C86.5189 49.9375 86.0663 49.4129 85.4943 49.0568C84.9261 48.7008 84.2898 48.5227 83.5852 48.5227C82.8807 48.5227 82.2424 48.7008 81.6705 49.0568C81.1023 49.4129 80.6496 49.9375 80.3125 50.6307C79.9792 51.3239 79.8125 52.1742 79.8125 53.1818C79.8125 54.1894 79.9792 55.0398 80.3125 55.733C80.6496 56.4261 81.1023 56.9508 81.6705 57.3068C82.2424 57.6629 82.8807 57.8409 83.5852 57.8409C84.2898 57.8409 84.9261 57.6629 85.4943 57.3068C86.0663 56.9508 86.5189 56.4261 86.8523 55.733C87.1894 55.0398 87.358 54.1894 87.358 53.1818ZM100.318 47.3636V59H98.9546L92.6136 49.8636H92.5V59H91.0909V47.3636H92.4546L98.8182 56.5227H98.9318V47.3636H100.318Z" fill="white"/>
<path d="M61 0.5H36V38.5C36 38.5 46.6041 29.6556 47.3971 29.1234C48.19 28.5912 49.1433 28.5681 49.9706 29.1234C50.7979 29.6786 61 38.5 61 38.5V0.5Z" stroke="white" stroke-linejoin="round"/>
</svg>
