<svg width="62" height="113" viewBox="0 0 62 113" fill="none" xmlns="http://www.w3.org/2000/svg">
<path d="M60.0355 8.53553C61.9882 6.58291 61.9882 3.41709 60.0355 1.46447C58.0829 -0.488155 54.9171 -0.488155 52.9645 1.46447L60.0355 8.53553ZM5 56.5L1.46447 52.9645C-0.488155 54.9171 -0.488155 58.0829 1.46447 60.0355L5 56.5ZM52.9645 111.536C54.9171 113.488 58.0829 113.488 60.0355 111.536C61.9882 109.583 61.9882 106.417 60.0355 104.464L52.9645 111.536ZM52.9645 1.46447L1.46447 52.9645L8.53553 60.0355L60.0355 8.53553L52.9645 1.46447ZM1.46447 60.0355L52.9645 111.536L60.0355 104.464L8.53553 52.9645L1.46447 60.0355Z" fill="white"/>
</svg>
