<svg width="103" height="60" viewBox="0 0 103 60" fill="none" xmlns="http://www.w3.org/2000/svg">
<path d="M11.2784 51.9375H8.78977C8.74432 51.6155 8.65152 51.3295 8.51136 51.0795C8.37121 50.8258 8.19129 50.6098 7.97159 50.4318C7.75189 50.2538 7.49811 50.1174 7.21023 50.0227C6.92614 49.928 6.61742 49.8807 6.28409 49.8807C5.68182 49.8807 5.1572 50.0303 4.71023 50.3295C4.26326 50.625 3.91667 51.0568 3.67045 51.625C3.42424 52.1894 3.30114 52.875 3.30114 53.6818C3.30114 54.5114 3.42424 55.2083 3.67045 55.7727C3.92045 56.3371 4.26894 56.7633 4.71591 57.0511C5.16288 57.339 5.67992 57.483 6.26705 57.483C6.59659 57.483 6.90152 57.4394 7.18182 57.3523C7.46591 57.2652 7.7178 57.1383 7.9375 56.9716C8.1572 56.8011 8.33902 56.5947 8.48295 56.3523C8.63068 56.1098 8.73295 55.8333 8.78977 55.5227L11.2784 55.5341C11.214 56.0682 11.053 56.5833 10.7955 57.0795C10.5417 57.572 10.1989 58.0133 9.76705 58.4034C9.33902 58.7898 8.82765 59.0966 8.23295 59.3239C7.64205 59.5473 6.97348 59.6591 6.22727 59.6591C5.18939 59.6591 4.26136 59.4242 3.44318 58.9545C2.62879 58.4848 1.98485 57.8049 1.51136 56.9148C1.04167 56.0246 0.806818 54.947 0.806818 53.6818C0.806818 52.4129 1.04545 51.3333 1.52273 50.4432C2 49.553 2.64773 48.875 3.46591 48.4091C4.28409 47.9394 5.20455 47.7045 6.22727 47.7045C6.90152 47.7045 7.52652 47.7992 8.10227 47.9886C8.68182 48.178 9.19508 48.4545 9.64205 48.8182C10.089 49.178 10.4527 49.6193 10.733 50.142C11.017 50.6648 11.1989 51.2633 11.2784 51.9375ZM23.7358 53.6818C23.7358 54.9508 23.4953 56.0303 23.0142 56.9205C22.5369 57.8106 21.8854 58.4905 21.0597 58.9602C20.2377 59.4261 19.3134 59.6591 18.2869 59.6591C17.2528 59.6591 16.3248 59.4242 15.5028 58.9545C14.6809 58.4848 14.0313 57.8049 13.554 56.9148C13.0767 56.0246 12.8381 54.947 12.8381 53.6818C12.8381 52.4129 13.0767 51.3333 13.554 50.4432C14.0313 49.553 14.6809 48.875 15.5028 48.4091C16.3248 47.9394 17.2528 47.7045 18.2869 47.7045C19.3134 47.7045 20.2377 47.9394 21.0597 48.4091C21.8854 48.875 22.5369 49.553 23.0142 50.4432C23.4953 51.3333 23.7358 52.4129 23.7358 53.6818ZM21.2415 53.6818C21.2415 52.8598 21.1184 52.1667 20.8722 51.6023C20.6297 51.0379 20.2869 50.6098 19.8438 50.3182C19.4006 50.0265 18.8816 49.8807 18.2869 49.8807C17.6922 49.8807 17.1733 50.0265 16.7301 50.3182C16.2869 50.6098 15.9422 51.0379 15.696 51.6023C15.4536 52.1667 15.3324 52.8598 15.3324 53.6818C15.3324 54.5038 15.4536 55.197 15.696 55.7614C15.9422 56.3258 16.2869 56.7538 16.7301 57.0455C17.1733 57.3371 17.6922 57.483 18.2869 57.483C18.8816 57.483 19.4006 57.3371 19.8438 57.0455C20.2869 56.7538 20.6297 56.3258 20.8722 55.7614C21.1184 55.197 21.2415 54.5038 21.2415 53.6818ZM25.5582 59.5V47.8636H28.0185V57.4716H33.0071V59.5H25.5582ZM34.6364 59.5V47.8636H37.0966V57.4716H42.0852V59.5H34.6364ZM43.7145 59.5V47.8636H51.5554V49.892H46.1747V52.6648H51.152V54.6932H46.1747V57.4716H51.5781V59.5H43.7145ZM63.7784 51.9375H61.2898C61.2443 51.6155 61.1515 51.3295 61.0114 51.0795C60.8712 50.8258 60.6913 50.6098 60.4716 50.4318C60.2519 50.2538 59.9981 50.1174 59.7102 50.0227C59.4261 49.928 59.1174 49.8807 58.7841 49.8807C58.1818 49.8807 57.6572 50.0303 57.2102 50.3295C56.7633 50.625 56.4167 51.0568 56.1705 51.625C55.9242 52.1894 55.8011 52.875 55.8011 53.6818C55.8011 54.5114 55.9242 55.2083 56.1705 55.7727C56.4205 56.3371 56.7689 56.7633 57.2159 57.0511C57.6629 57.339 58.1799 57.483 58.767 57.483C59.0966 57.483 59.4015 57.4394 59.6818 57.3523C59.9659 57.2652 60.2178 57.1383 60.4375 56.9716C60.6572 56.8011 60.839 56.5947 60.983 56.3523C61.1307 56.1098 61.233 55.8333 61.2898 55.5227L63.7784 55.5341C63.714 56.0682 63.553 56.5833 63.2955 57.0795C63.0417 57.572 62.6989 58.0133 62.267 58.4034C61.839 58.7898 61.3277 59.0966 60.733 59.3239C60.142 59.5473 59.4735 59.6591 58.7273 59.6591C57.6894 59.6591 56.7614 59.4242 55.9432 58.9545C55.1288 58.4848 54.4848 57.8049 54.0114 56.9148C53.5417 56.0246 53.3068 54.947 53.3068 53.6818C53.3068 52.4129 53.5455 51.3333 54.0227 50.4432C54.5 49.553 55.1477 48.875 55.9659 48.4091C56.7841 47.9394 57.7045 47.7045 58.7273 47.7045C59.4015 47.7045 60.0265 47.7992 60.6023 47.9886C61.1818 48.178 61.6951 48.4545 62.142 48.8182C62.589 49.178 62.9527 49.6193 63.233 50.142C63.517 50.6648 63.6989 51.2633 63.7784 51.9375ZM65.0994 49.892V47.8636H74.6562V49.892H71.0938V59.5H68.6619V49.892H65.0994ZM78.6903 47.8636V59.5H76.2301V47.8636H78.6903ZM91.4077 53.6818C91.4077 54.9508 91.1671 56.0303 90.6861 56.9205C90.2088 57.8106 89.5573 58.4905 88.7315 58.9602C87.9096 59.4261 86.9853 59.6591 85.9588 59.6591C84.9247 59.6591 83.9967 59.4242 83.1747 58.9545C82.3527 58.4848 81.7031 57.8049 81.2259 56.9148C80.7486 56.0246 80.5099 54.947 80.5099 53.6818C80.5099 52.4129 80.7486 51.3333 81.2259 50.4432C81.7031 49.553 82.3527 48.875 83.1747 48.4091C83.9967 47.9394 84.9247 47.7045 85.9588 47.7045C86.9853 47.7045 87.9096 47.9394 88.7315 48.4091C89.5573 48.875 90.2088 49.553 90.6861 50.4432C91.1671 51.3333 91.4077 52.4129 91.4077 53.6818ZM88.9134 53.6818C88.9134 52.8598 88.7902 52.1667 88.544 51.6023C88.3016 51.0379 87.9588 50.6098 87.5156 50.3182C87.0724 50.0265 86.5535 49.8807 85.9588 49.8807C85.3641 49.8807 84.8452 50.0265 84.402 50.3182C83.9588 50.6098 83.6141 51.0379 83.3679 51.6023C83.1255 52.1667 83.0043 52.8598 83.0043 53.6818C83.0043 54.5038 83.1255 55.197 83.3679 55.7614C83.6141 56.3258 83.9588 56.7538 84.402 57.0455C84.8452 57.3371 85.3641 57.483 85.9588 57.483C86.5535 57.483 87.0724 57.3371 87.5156 57.0455C87.9588 56.7538 88.3016 56.3258 88.544 55.7614C88.7902 55.197 88.9134 54.5038 88.9134 53.6818ZM102.963 47.8636V59.5H100.838L95.7756 52.1761H95.6903V59.5H93.2301V47.8636H95.3892L100.412 55.1818H100.514V47.8636H102.963Z" fill="white"/>
<path d="M62 0.5H37V38.5C37 38.5 47.6041 29.6556 48.3971 29.1234C49.19 28.5912 50.1433 28.5681 50.9706 29.1234C51.7979 29.6786 62 38.5 62 38.5V0.5Z" fill="#D9D9D9" stroke="black" stroke-linejoin="round"/>
</svg>
