<svg width="39" height="27" viewBox="0 0 39 27" fill="none" xmlns="http://www.w3.org/2000/svg">
<path d="M36.6062 11.375H2.39375C1.27883 11.375 0.375 12.2788 0.375 13.3937V13.6063C0.375 14.7212 1.27883 15.625 2.39375 15.625H36.6062C37.7212 15.625 38.625 14.7212 38.625 13.6063V13.3937C38.625 12.2788 37.7212 11.375 36.6062 11.375Z" fill="black"/>
<path d="M36.6062 22H2.39375C1.27883 22 0.375 22.9038 0.375 24.0188V24.2312C0.375 25.3462 1.27883 26.25 2.39375 26.25H36.6062C37.7212 26.25 38.625 25.3462 38.625 24.2312V24.0188C38.625 22.9038 37.7212 22 36.6062 22Z" fill="black"/>
<path d="M36.6062 0.75H2.39375C1.27883 0.75 0.375 1.65382 0.375 2.76875V2.98125C0.375 4.09618 1.27883 5 2.39375 5H36.6062C37.7212 5 38.625 4.09618 38.625 2.98125V2.76875C38.625 1.65382 37.7212 0.75 36.6062 0.75Z" fill="black"/>
</svg>
