<svg width="46" height="60" viewBox="0 0 46 60" fill="none" xmlns="http://www.w3.org/2000/svg">
<path d="M0.445956 59V47.3636H7.42323V48.6136H1.85505V52.5455H6.9005V53.7955H1.85505V59H0.445956ZM11.2457 47.3636V59H9.83658V47.3636H11.2457ZM14.071 59V47.3636H15.48V57.75H20.8891V59H14.071ZM23.071 47.3636H24.7528L28.7073 57.0227H28.8437L32.7982 47.3636H34.48V59H33.1619V50.1591H33.0482L29.4119 59H28.1391L24.5028 50.1591H24.3891V59H23.071V47.3636ZM43.669 50.2727C43.6008 49.697 43.3243 49.25 42.8394 48.9318C42.3546 48.6136 41.7599 48.4545 41.0553 48.4545C40.5402 48.4545 40.0894 48.5379 39.7031 48.7045C39.3205 48.8712 39.0212 49.1004 38.8053 49.392C38.5932 49.6837 38.4871 50.0152 38.4871 50.3864C38.4871 50.697 38.561 50.964 38.7087 51.1875C38.8603 51.4072 39.0534 51.5909 39.2883 51.7386C39.5231 51.8826 39.7693 52.0019 40.0269 52.0966C40.2845 52.1875 40.5212 52.2614 40.7371 52.3182L41.919 52.6364C42.222 52.7159 42.5591 52.8258 42.9303 52.9659C43.3053 53.1061 43.6633 53.2973 44.0042 53.5398C44.3489 53.7784 44.633 54.0852 44.8565 54.4602C45.08 54.8352 45.1917 55.2955 45.1917 55.8409C45.1917 56.4697 45.0269 57.0379 44.6974 57.5455C44.3716 58.053 43.8943 58.4564 43.2656 58.7557C42.6406 59.0549 41.8811 59.2045 40.9871 59.2045C40.1538 59.2045 39.4322 59.0701 38.8224 58.8011C38.2163 58.5322 37.739 58.1572 37.3906 57.6761C37.0459 57.1951 36.8508 56.6364 36.8053 56H38.2599C38.2978 56.4394 38.4455 56.803 38.7031 57.0909C38.9644 57.375 39.294 57.5871 39.6917 57.7273C40.0932 57.8636 40.525 57.9318 40.9871 57.9318C41.525 57.9318 42.008 57.8447 42.436 57.6705C42.864 57.4924 43.2031 57.2462 43.4531 56.9318C43.7031 56.6136 43.8281 56.2424 43.8281 55.8182C43.8281 55.4318 43.7201 55.1174 43.5042 54.875C43.2883 54.6326 43.0042 54.4356 42.6519 54.2841C42.2996 54.1326 41.919 54 41.5099 53.8864L40.0781 53.4773C39.169 53.2159 38.4493 52.8428 37.919 52.358C37.3887 51.8731 37.1235 51.2386 37.1235 50.4545C37.1235 49.803 37.2996 49.2348 37.6519 48.75C38.008 48.2614 38.4853 47.8826 39.0837 47.6136C39.686 47.3409 40.3584 47.2045 41.1008 47.2045C41.8508 47.2045 42.5175 47.339 43.1008 47.608C43.6841 47.8731 44.1462 48.2367 44.4871 48.6989C44.8318 49.161 45.0137 49.6856 45.0326 50.2727H43.669Z" fill="white"/>
<path d="M41.0739 39.3404H5.74451V16.3404H41.0739V39.3404Z" stroke="white" stroke-linejoin="round"/>
<path d="M5.05209 8.25629L11.7292 6.85662L20.3024 13.367L6.24711 16.3133C5.97685 16.3699 5.72491 16.1944 5.68439 15.9213L4.63608 8.85345C4.59557 8.5803 4.78182 8.31294 5.05209 8.25629ZM21.636 13.0875L13.0628 6.57708L23.3268 4.42555L31.9 10.9359L21.636 13.0875ZM33.2335 10.6564L24.6604 4.146L38.7157 1.19974C38.9859 1.14308 39.2379 1.31859 39.2784 1.59175L40.3267 8.65955C40.3672 8.93271 40.181 9.20007 39.9107 9.25672L33.2335 10.6564Z" stroke="white"/>
</svg>
