<svg width="41" height="30" viewBox="0 0 41 30" fill="none" xmlns="http://www.w3.org/2000/svg">
<path d="M39 17C40.1046 17 41 16.1046 41 15C41 13.8954 40.1046 13 39 13V17ZM2.58578 13.5858C1.80474 14.3668 1.80474 15.6332 2.58578 16.4142L15.3137 29.1421C16.0948 29.9232 17.3611 29.9232 18.1421 29.1421C18.9232 28.3611 18.9232 27.0948 18.1421 26.3137L6.82843 15L18.1421 3.68629C18.9232 2.90524 18.9232 1.63891 18.1421 0.857864C17.3611 0.0768156 16.0948 0.0768156 15.3137 0.857864L2.58578 13.5858ZM39 13L4 13V17L39 17V13Z" fill="black"/>
</svg>
