<svg width="141" height="29" viewBox="0 0 141 29" fill="none" xmlns="http://www.w3.org/2000/svg">
<path d="M98.5 1.61804L101.28 10.1738L101.392 10.5193H101.755L110.751 10.5193L103.474 15.807L103.18 16.0205L103.292 16.366L106.072 24.9217L98.7939 19.634L98.5 19.4205L98.2061 19.634L90.9282 24.9217L93.7081 16.366L93.8204 16.0205L93.5265 15.807L86.2485 10.5193L95.2445 10.5193H95.6078L95.7201 10.1738L98.5 1.61804Z" fill="black" stroke="black"/>
<path d="M126.5 1.61804L129.28 10.1738L129.392 10.5193H129.755L138.751 10.5193L131.474 15.807L131.18 16.0205L131.292 16.366L134.072 24.9217L126.794 19.634L126.5 19.4205L126.206 19.634L118.928 24.9217L121.708 16.366L121.82 16.0205L121.526 15.807L114.249 10.5193L123.245 10.5193H123.608L123.72 10.1738L126.5 1.61804Z" fill="black" stroke="black"/>
<path d="M70.5 1.61804L73.2799 10.1738L73.3922 10.5193H73.7555L82.7515 10.5193L75.4735 15.807L75.1796 16.0205L75.2919 16.366L78.0718 24.9217L70.7939 19.634L70.5 19.4205L70.2061 19.634L62.9282 24.9217L65.7081 16.366L65.8204 16.0205L65.5265 15.807L58.2485 10.5193L67.2445 10.5193H67.6078L67.7201 10.1738L70.5 1.61804Z" fill="black" stroke="black"/>
<path d="M42.5 1.61804L45.2799 10.1738L45.3922 10.5193H45.7555L54.7515 10.5193L47.4735 15.807L47.1796 16.0205L47.2919 16.366L50.0718 24.9217L42.7939 19.634L42.5 19.4205L42.2061 19.634L34.9282 24.9217L37.7081 16.366L37.8204 16.0205L37.5265 15.807L30.2485 10.5193L39.2445 10.5193H39.6078L39.7201 10.1738L42.5 1.61804Z" fill="black" stroke="black"/>
<path d="M14.5 1.61804L17.2799 10.1738L17.3922 10.5193H17.7555L26.7515 10.5193L19.4735 15.807L19.1796 16.0205L19.2919 16.366L22.0718 24.9217L14.7939 19.634L14.5 19.4205L14.2061 19.634L6.92817 24.9217L9.7081 16.366L9.82035 16.0205L9.52646 15.807L2.24852 10.5193L11.2445 10.5193H11.6078L11.7201 10.1738L14.5 1.61804Z" fill="black" stroke="black"/>
</svg>
