<svg width="62" height="113" viewBox="0 0 62 113" fill="none" xmlns="http://www.w3.org/2000/svg">
<path d="M1.46447 104.464C-0.488156 106.417 -0.488155 109.583 1.46447 111.536C3.41709 113.488 6.58291 113.488 8.53553 111.536L1.46447 104.464ZM56.5 56.5L60.0355 60.0355C61.9882 58.0829 61.9882 54.9171 60.0355 52.9645L56.5 56.5ZM8.53552 1.46447C6.5829 -0.488151 3.41708 -0.488151 1.46446 1.46447C-0.488165 3.41709 -0.488164 6.58292 1.46446 8.53554L8.53552 1.46447ZM8.53553 111.536L60.0355 60.0355L52.9645 52.9645L1.46447 104.464L8.53553 111.536ZM60.0355 52.9645L8.53552 1.46447L1.46446 8.53554L52.9645 60.0355L60.0355 52.9645Z" fill="white"/>
</svg>
