<svg width="83" height="83" viewBox="0 0 83 83" fill="none" xmlns="http://www.w3.org/2000/svg">
<path d="M41.4995 6.91663C22.7518 6.91663 6.91614 22.7523 6.91614 41.5C6.91614 60.2476 22.7518 76.0833 41.4995 76.0833C60.2471 76.0833 76.0828 60.2476 76.0828 41.5C76.0828 22.7523 60.2471 6.91663 41.4995 6.91663ZM41.4995 24.2083C47.472 24.2083 51.8745 28.6073 51.8745 34.5833C51.8745 40.5593 47.472 44.9583 41.4995 44.9583C35.5304 44.9583 31.1245 40.5593 31.1245 34.5833C31.1245 28.6073 35.5304 24.2083 41.4995 24.2083ZM23.8412 58.0031C26.9433 53.4381 32.117 50.3948 38.0411 50.3948H44.9578C50.8854 50.3948 56.0556 53.4381 59.1577 58.0031C54.738 62.7341 48.468 65.7083 41.4995 65.7083C34.5309 65.7083 28.261 62.7341 23.8412 58.0031Z" fill="black"/>
</svg>
