<svg width="66" height="60" viewBox="0 0 66 60" fill="none" xmlns="http://www.w3.org/2000/svg">
<path d="M0.372165 59.5V47.8636H4.44035C5.25095 47.8636 5.91951 48.0038 6.44603 48.2841C6.97254 48.5606 7.36459 48.9337 7.62216 49.4034C7.87974 49.8693 8.00853 50.3864 8.00853 50.9545C8.00853 51.4545 7.91951 51.8674 7.74148 52.1932C7.56724 52.5189 7.33618 52.7765 7.0483 52.9659C6.76421 53.1553 6.4555 53.2955 6.12216 53.3864V53.5C6.47823 53.5227 6.83618 53.6477 7.19603 53.875C7.55588 54.1023 7.85701 54.428 8.09944 54.8523C8.34186 55.2765 8.46307 55.7955 8.46307 56.4091C8.46307 56.9924 8.3305 57.517 8.06535 57.983C7.8002 58.4489 7.38163 58.8182 6.80966 59.0909C6.2377 59.3636 5.49338 59.5 4.57671 59.5H0.372165ZM1.78126 58.25H4.57671C5.49716 58.25 6.15057 58.072 6.53694 57.7159C6.92709 57.3561 7.12216 56.9205 7.12216 56.4091C7.12216 56.0152 7.02179 55.6515 6.82103 55.3182C6.62027 54.9811 6.33429 54.7121 5.96307 54.5114C5.59186 54.3068 5.15247 54.2045 4.64489 54.2045H1.78126V58.25ZM1.78126 52.9773H4.39489C4.81913 52.9773 5.20171 52.8939 5.54262 52.7273C5.88732 52.5606 6.16004 52.3258 6.3608 52.0227C6.56535 51.7197 6.66762 51.3636 6.66762 50.9545C6.66762 50.4432 6.48959 50.0095 6.13353 49.6534C5.77747 49.2936 5.21307 49.1136 4.44035 49.1136H1.78126V52.9773ZM10.7784 59.5V47.8636H14.7102C15.6193 47.8636 16.3655 48.0189 16.9489 48.3295C17.5322 48.6364 17.964 49.0587 18.2443 49.5966C18.5246 50.1345 18.6648 50.7462 18.6648 51.4318C18.6648 52.1174 18.5246 52.7254 18.2443 53.2557C17.964 53.786 17.5341 54.2027 16.9546 54.5057C16.375 54.8049 15.6345 54.9545 14.733 54.9545H11.5511V53.6818H14.6875C15.3087 53.6818 15.8087 53.5909 16.1875 53.4091C16.5701 53.2273 16.8466 52.9697 17.0171 52.6364C17.1913 52.2992 17.2784 51.8977 17.2784 51.4318C17.2784 50.9659 17.1913 50.5587 17.0171 50.2102C16.8428 49.8617 16.5644 49.5928 16.1818 49.4034C15.7992 49.2102 15.2936 49.1136 14.6648 49.1136H12.1875V59.5H10.7784ZM16.2557 54.2727L19.1193 59.5H17.483L14.6648 54.2727H16.2557ZM30.831 53.6818C30.831 54.9091 30.6094 55.9697 30.1662 56.8636C29.723 57.7576 29.1151 58.447 28.3423 58.9318C27.5696 59.4167 26.687 59.6591 25.6946 59.6591C24.7022 59.6591 23.8196 59.4167 23.0469 58.9318C22.2742 58.447 21.6662 57.7576 21.223 56.8636C20.7798 55.9697 20.5582 54.9091 20.5582 53.6818C20.5582 52.4545 20.7798 51.3939 21.223 50.5C21.6662 49.6061 22.2742 48.9167 23.0469 48.4318C23.8196 47.947 24.7022 47.7045 25.6946 47.7045C26.687 47.7045 27.5696 47.947 28.3423 48.4318C29.1151 48.9167 29.723 49.6061 30.1662 50.5C30.6094 51.3939 30.831 52.4545 30.831 53.6818ZM29.4673 53.6818C29.4673 52.6742 29.2988 51.8239 28.9617 51.1307C28.6283 50.4375 28.1757 49.9129 27.6037 49.5568C27.0355 49.2008 26.3992 49.0227 25.6946 49.0227C24.9901 49.0227 24.3518 49.2008 23.7798 49.5568C23.2117 49.9129 22.759 50.4375 22.4219 51.1307C22.0885 51.8239 21.9219 52.6742 21.9219 53.6818C21.9219 54.6894 22.0885 55.5398 22.4219 56.233C22.759 56.9261 23.2117 57.4508 23.7798 57.8068C24.3518 58.1629 24.9901 58.3409 25.6946 58.3409C26.3992 58.3409 27.0355 58.1629 27.6037 57.8068C28.1757 57.4508 28.6283 56.9261 28.9617 56.233C29.2988 55.5398 29.4673 54.6894 29.4673 53.6818ZM35.3139 59.5L32.1321 47.8636H33.5639L35.9957 57.3409H36.1094L38.5867 47.8636H40.1776L42.6548 57.3409H42.7685L45.2003 47.8636H46.6321L43.4503 59.5H41.9957L39.4276 50.2273H39.3367L36.7685 59.5H35.3139ZM54.7514 50.7727C54.6832 50.197 54.4067 49.75 53.9219 49.4318C53.437 49.1136 52.8423 48.9545 52.1378 48.9545C51.6226 48.9545 51.1719 49.0379 50.7855 49.2045C50.4029 49.3712 50.1037 49.6004 49.8878 49.892C49.6757 50.1837 49.5696 50.5152 49.5696 50.8864C49.5696 51.197 49.6435 51.464 49.7912 51.6875C49.9427 51.9072 50.1359 52.0909 50.3707 52.2386C50.6056 52.3826 50.8518 52.5019 51.1094 52.5966C51.367 52.6875 51.6037 52.7614 51.8196 52.8182L53.0014 53.1364C53.3045 53.2159 53.6416 53.3258 54.0128 53.4659C54.3878 53.6061 54.7457 53.7973 55.0867 54.0398C55.4314 54.2784 55.7154 54.5852 55.9389 54.9602C56.1624 55.3352 56.2742 55.7955 56.2742 56.3409C56.2742 56.9697 56.1094 57.5379 55.7798 58.0455C55.4541 58.553 54.9768 58.9564 54.348 59.2557C53.723 59.5549 52.9635 59.7045 52.0696 59.7045C51.2363 59.7045 50.5147 59.5701 49.9048 59.3011C49.2988 59.0322 48.8215 58.6572 48.473 58.1761C48.1283 57.6951 47.9332 57.1364 47.8878 56.5H49.3423C49.3802 56.9394 49.5279 57.303 49.7855 57.5909C50.0469 57.875 50.3764 58.0871 50.7742 58.2273C51.1757 58.3636 51.6075 58.4318 52.0696 58.4318C52.6075 58.4318 53.0904 58.3447 53.5185 58.1705C53.9465 57.9924 54.2855 57.7462 54.5355 57.4318C54.7855 57.1136 54.9105 56.7424 54.9105 56.3182C54.9105 55.9318 54.8026 55.6174 54.5867 55.375C54.3707 55.1326 54.0867 54.9356 53.7344 54.7841C53.3821 54.6326 53.0014 54.5 52.5923 54.3864L51.1605 53.9773C50.2514 53.7159 49.5317 53.3428 49.0014 52.858C48.4711 52.3731 48.206 51.7386 48.206 50.9545C48.206 50.303 48.3821 49.7348 48.7344 49.25C49.0904 48.7614 49.5677 48.3826 50.1662 48.1136C50.7685 47.8409 51.4408 47.7045 52.1832 47.7045C52.9332 47.7045 53.5999 47.839 54.1832 48.108C54.7666 48.3731 55.2287 48.7367 55.5696 49.1989C55.9143 49.661 56.0961 50.1856 56.1151 50.7727H54.7514ZM58.5909 59.5V47.8636H65.6136V49.1136H60V53.0455H65.25V54.2955H60V58.25H65.7046V59.5H58.5909Z" fill="white"/>
<path d="M41.4328 35.5265C41.6316 35.7182 41.9481 35.7126 42.1398 35.5138C42.3316 35.3151 42.3259 34.9986 42.1272 34.8068L37.168 30.0224C37.8166 29.2392 38.22 28.2295 38.22 27.0417C38.22 23.9871 35.6004 22.2083 33.08 22.2083C30.5596 22.2083 27.94 23.9871 27.94 27.0417C27.94 30.0962 30.5596 31.875 33.08 31.875C34.2892 31.875 35.5047 31.4733 36.4524 30.7215L41.4328 35.5265ZM24.8 9.66666H40.2C41.0284 9.66666 41.7 8.99508 41.7 8.16666V7.45832C41.7 6.6299 41.0284 5.95832 40.2 5.95832H24.8C23.9716 5.95832 23.3 6.6299 23.3 7.45832V8.16666C23.3 8.99508 23.9716 9.66666 24.8 9.66666ZM40.2 8.66666H24.8C24.5239 8.66666 24.3 8.4428 24.3 8.16666V7.45832C24.3 7.18218 24.5239 6.95832 24.8 6.95832H40.2C40.4761 6.95832 40.7 7.18218 40.7 7.45832V8.16666C40.7 8.4428 40.4761 8.66666 40.2 8.66666ZM24.8 14.5417H40.2C40.4761 14.5417 40.7 14.7655 40.7 15.0417V15.75C40.7 16.0261 40.4761 16.25 40.2 16.25H24.8C24.5239 16.25 24.3 16.0261 24.3 15.75V15.0417C24.3 14.7655 24.5239 14.5417 24.8 14.5417ZM40.2 13.5417H24.8C23.9716 13.5417 23.3 14.2132 23.3 15.0417V15.75C23.3 16.5784 23.9716 17.25 24.8 17.25H40.2C41.0284 17.25 41.7 16.5784 41.7 15.75V15.0417C41.7 14.2132 41.0284 13.5417 40.2 13.5417ZM33.08 23.2083C35.1996 23.2083 37.22 24.6795 37.22 27.0417C37.22 28.1481 36.7868 29.0384 36.121 29.6837C35.3341 30.4463 34.2112 30.875 33.08 30.875C30.9604 30.875 28.94 29.4038 28.94 27.0417C28.94 24.6795 30.9604 23.2083 33.08 23.2083ZM19 1H46C46.2761 1 46.5 1.22386 46.5 1.5V38.5C46.5 38.7761 46.2761 39 46 39H19C18.7239 39 18.5 38.7761 18.5 38.5V1.5C18.5 1.22386 18.7239 1 19 1Z" stroke="white" stroke-linecap="round" stroke-linejoin="round"/>
</svg>
