<svg width="26" height="27" viewBox="0 0 26 27" fill="none" xmlns="http://www.w3.org/2000/svg">
<path d="M16.052 13.4982L25.3597 4.21081C25.7673 3.80315 25.9963 3.25025 25.9963 2.67374C25.9963 2.09723 25.7673 1.54433 25.3597 1.13667C24.9521 0.729019 24.3993 0.5 23.8229 0.5C23.2464 0.5 22.6936 0.729019 22.286 1.13667L13 10.4457L3.71397 1.13667C3.30638 0.729019 2.75356 0.5 2.17713 0.5C1.6007 0.5 1.04788 0.729019 0.640278 1.13667C0.23268 1.54433 0.00369407 2.09723 0.00369406 2.67374C0.00369406 3.25025 0.23268 3.80315 0.640278 4.21081L9.94795 13.4982L0.640278 22.7855C0.437395 22.9868 0.276364 23.2262 0.166471 23.49C0.0565787 23.7538 0 24.0368 0 24.3226C0 24.6084 0.0565787 24.8913 0.166471 25.1551C0.276364 25.4189 0.437395 25.6584 0.640278 25.8596C0.841503 26.0625 1.08091 26.2236 1.34468 26.3335C1.60845 26.4434 1.89138 26.5 2.17713 26.5C2.46288 26.5 2.7458 26.4434 3.00957 26.3335C3.27334 26.2236 3.51275 26.0625 3.71397 25.8596L13 16.5506L22.286 25.8596C22.4873 26.0625 22.7267 26.2236 22.9904 26.3335C23.2542 26.4434 23.5371 26.5 23.8229 26.5C24.1086 26.5 24.3915 26.4434 24.6553 26.3335C24.9191 26.2236 25.1585 26.0625 25.3597 25.8596C25.5626 25.6584 25.7236 25.4189 25.8335 25.1551C25.9434 24.8913 26 24.6084 26 24.3226C26 24.0368 25.9434 23.7538 25.8335 23.49C25.7236 23.2262 25.5626 22.9868 25.3597 22.7855L16.052 13.4982Z" fill="black"/>
</svg>
