<svg width="47" height="60" viewBox="0 0 47 60" fill="none" xmlns="http://www.w3.org/2000/svg">
<path d="M0.0482899 59.4202V47.7838H7.75284V49.8122H2.50852V52.585H7.24147V54.6134H2.50852V59.4202H0.0482899ZM11.8679 47.7838V59.4202H9.40766V47.7838H11.8679ZM13.892 59.4202V47.7838H16.3523V57.3918H21.3409V59.4202H13.892ZM22.9702 47.7838H26.0043L29.2088 55.602H29.3452L32.5497 47.7838H35.5838V59.4202H33.1974V51.8463H33.1008L30.0895 59.3634H28.4645L25.4531 51.8179H25.3565V59.4202H22.9702V47.7838ZM43.9233 51.1304C43.8778 50.6721 43.6828 50.316 43.3381 50.0622C42.9934 49.8085 42.5256 49.6816 41.9347 49.6816C41.5331 49.6816 41.1941 49.7384 40.9176 49.852C40.6411 49.9619 40.429 50.1153 40.2812 50.3122C40.1373 50.5092 40.0653 50.7327 40.0653 50.9827C40.0578 51.191 40.1013 51.3728 40.196 51.5282C40.2945 51.6835 40.429 51.8179 40.5994 51.9316C40.7699 52.0414 40.9669 52.138 41.1903 52.2213C41.4138 52.3009 41.6525 52.3691 41.9062 52.4259L42.9517 52.6759C43.4593 52.7895 43.9252 52.941 44.3494 53.1304C44.7737 53.3198 45.1411 53.5528 45.4517 53.8293C45.7623 54.1058 46.0028 54.4316 46.1733 54.8066C46.3475 55.1816 46.4365 55.6115 46.4403 56.0963C46.4365 56.8085 46.2547 57.4259 45.8949 57.9486C45.5388 58.4675 45.0237 58.871 44.3494 59.1588C43.679 59.4429 42.8703 59.585 41.9233 59.585C40.9839 59.585 40.1657 59.441 39.4687 59.1532C38.7756 58.8653 38.2339 58.4391 37.8437 57.8747C37.4574 57.3066 37.2547 56.6039 37.2358 55.7668H39.6165C39.643 56.1569 39.7547 56.4827 39.9517 56.7441C40.1525 57.0016 40.4195 57.1967 40.7528 57.3293C41.09 57.4581 41.4706 57.5225 41.8949 57.5225C42.3115 57.5225 42.6733 57.4619 42.9801 57.3407C43.2907 57.2194 43.5312 57.0509 43.7017 56.835C43.8722 56.6191 43.9574 56.371 43.9574 56.0907C43.9574 55.8293 43.8797 55.6096 43.7244 55.4316C43.5729 55.2535 43.3494 55.102 43.054 54.977C42.7623 54.852 42.4044 54.7384 41.9801 54.6361L40.7131 54.3179C39.732 54.0793 38.9574 53.7062 38.3892 53.1986C37.821 52.691 37.5388 52.0073 37.5426 51.1475C37.5388 50.4429 37.7263 49.8274 38.1051 49.3009C38.4877 48.7744 39.0123 48.3634 39.679 48.0679C40.3456 47.7725 41.1032 47.6247 41.9517 47.6247C42.8153 47.6247 43.5691 47.7725 44.2131 48.0679C44.8608 48.3634 45.3646 48.7744 45.7244 49.3009C46.0843 49.8274 46.2699 50.4372 46.2812 51.1304H43.9233Z" fill="white"/>
<path d="M41.0739 39.3404H5.74451V16.3404H41.0739V39.3404Z" fill="#D9D9D9" stroke="black" stroke-linejoin="round"/>
<path d="M5.05209 8.25629L11.7292 6.85662L20.3024 13.367L6.24711 16.3133C5.97685 16.3699 5.72491 16.1944 5.68439 15.9213L4.63608 8.85345C4.59557 8.5803 4.78182 8.31294 5.05209 8.25629ZM21.636 13.0875L13.0628 6.57708L23.3268 4.42555L31.9 10.9359L21.636 13.0875ZM33.2335 10.6564L24.6604 4.146L38.7157 1.19974C38.9859 1.14308 39.2379 1.31859 39.2784 1.59175L40.3267 8.65955C40.3672 8.93271 40.181 9.20007 39.9107 9.25672L33.2335 10.6564Z" fill="#D9D9D9" stroke="black"/>
</svg>
