<svg width="31" height="31" viewBox="0 0 31 31" fill="none" xmlns="http://www.w3.org/2000/svg">
<path fill-rule="evenodd" clip-rule="evenodd" d="M21.8073 19.7277L29.6531 27.5736C29.9289 27.8495 30.0837 28.2237 30.0836 28.6139C30.0835 29.004 29.9284 29.3781 29.6524 29.6539C29.3764 29.9296 29.0022 30.0845 28.6121 30.0844C28.222 30.0842 27.8479 29.9291 27.5721 29.6531L19.7263 21.8073C17.3808 23.6239 14.4315 24.4788 11.4781 24.198C8.52476 23.9173 5.7893 22.5219 3.82821 20.2959C1.86712 18.0699 0.827702 15.1804 0.921416 12.2152C1.01513 9.25 2.23494 6.43189 4.33268 4.33415C6.43043 2.2364 9.24854 1.0166 12.2137 0.922881C15.1789 0.829167 18.0684 1.86858 20.2944 3.82967C22.5205 5.79077 23.9158 8.52623 24.1966 11.4796C24.4773 14.4329 23.6225 17.3823 21.8058 19.7277H21.8073ZM12.5833 21.3333C14.904 21.3333 17.1296 20.4115 18.7705 18.7705C20.4115 17.1296 21.3333 14.904 21.3333 12.5833C21.3333 10.2627 20.4115 8.03711 18.7705 6.39616C17.1296 4.75522 14.904 3.83335 12.5833 3.83335C10.2627 3.83335 8.0371 4.75522 6.39616 6.39616C4.75521 8.03711 3.83334 10.2627 3.83334 12.5833C3.83334 14.904 4.75521 17.1296 6.39616 18.7705C8.0371 20.4115 10.2627 21.3333 12.5833 21.3333Z" fill="black"/>
</svg>
