<svg width="68" height="57" viewBox="0 0 68 57" fill="none" xmlns="http://www.w3.org/2000/svg">
<path d="M0.974437 56.5V44.8636H3.43466V54.4716H8.4233V56.5H0.974437ZM12.5128 44.8636V56.5H10.0526V44.8636H12.5128ZM14.5369 56.5V44.8636H19.196C20.0521 44.8636 20.7661 44.9905 21.3381 45.2443C21.91 45.4981 22.34 45.8504 22.6278 46.3011C22.9157 46.7481 23.0597 47.2633 23.0597 47.8466C23.0597 48.3011 22.9688 48.7008 22.7869 49.0455C22.6051 49.3864 22.3551 49.6667 22.0369 49.8864C21.7225 50.1023 21.3627 50.2557 20.9574 50.3466V50.4602C21.4006 50.4792 21.8153 50.6042 22.2017 50.8352C22.5919 51.0663 22.9081 51.3902 23.1506 51.8068C23.393 52.2197 23.5142 52.7121 23.5142 53.2841C23.5142 53.9015 23.3608 54.4527 23.054 54.9375C22.751 55.4186 22.3021 55.7992 21.7074 56.0795C21.1127 56.3598 20.3797 56.5 19.5085 56.5H14.5369ZM16.9972 54.4886H19.0028C19.6885 54.4886 20.1885 54.358 20.5028 54.0966C20.8172 53.8314 20.9744 53.4792 20.9744 53.0398C20.9744 52.7178 20.8968 52.4337 20.7415 52.1875C20.5862 51.9413 20.3646 51.7481 20.0767 51.608C19.7926 51.4678 19.4536 51.3977 19.0597 51.3977H16.9972V54.4886ZM16.9972 49.733H18.821C19.1581 49.733 19.4574 49.6742 19.7188 49.5568C19.9839 49.4356 20.1922 49.2652 20.3438 49.0455C20.4991 48.8258 20.5767 48.5625 20.5767 48.2557C20.5767 47.8352 20.4271 47.4962 20.1278 47.2386C19.8324 46.9811 19.4119 46.8523 18.8665 46.8523H16.9972V49.733ZM25.1151 56.5V44.8636H29.706C30.5848 44.8636 31.3348 45.0208 31.956 45.3352C32.581 45.6458 33.0564 46.0871 33.3821 46.6591C33.7117 47.2273 33.8764 47.8958 33.8764 48.6648C33.8764 49.4375 33.7098 50.1023 33.3764 50.6591C33.0431 51.2121 32.5601 51.6364 31.9276 51.9318C31.2988 52.2273 30.5374 52.375 29.6435 52.375H26.5696V50.3977H29.2457C29.7154 50.3977 30.1056 50.3333 30.4162 50.2045C30.7268 50.0758 30.9579 49.8826 31.1094 49.625C31.2647 49.3674 31.3423 49.0473 31.3423 48.6648C31.3423 48.2784 31.2647 47.9527 31.1094 47.6875C30.9579 47.4223 30.7249 47.2216 30.4105 47.0852C30.0999 46.9451 29.7079 46.875 29.2344 46.875H27.5753V56.5H25.1151ZM31.3992 51.2045L34.2912 56.5H31.5753L28.7457 51.2045H31.3992ZM37.6207 56.5H34.9844L39.0014 44.8636H42.1719L46.1832 56.5H43.5469L40.6321 47.5227H40.5412L37.6207 56.5ZM37.456 51.9261H43.6832V53.8466H37.456V51.9261ZM47.5838 56.5V44.8636H52.1747C53.0535 44.8636 53.8035 45.0208 54.4247 45.3352C55.0497 45.6458 55.5251 46.0871 55.8509 46.6591C56.1804 47.2273 56.3452 47.8958 56.3452 48.6648C56.3452 49.4375 56.1785 50.1023 55.8452 50.6591C55.5118 51.2121 55.0289 51.6364 54.3963 51.9318C53.7675 52.2273 53.0062 52.375 52.1122 52.375H49.0384V50.3977H51.7145C52.1842 50.3977 52.5743 50.3333 52.8849 50.2045C53.1956 50.0758 53.4266 49.8826 53.5781 49.625C53.7334 49.3674 53.8111 49.0473 53.8111 48.6648C53.8111 48.2784 53.7334 47.9527 53.5781 47.6875C53.4266 47.4223 53.1937 47.2216 52.8793 47.0852C52.5687 46.9451 52.1766 46.875 51.7031 46.875H50.044V56.5H47.5838ZM53.8679 51.2045L56.7599 56.5H54.044L51.2145 51.2045H53.8679ZM56.9176 44.8636H59.6733L62.3267 49.875H62.4403L65.0938 44.8636H67.8494L63.6051 52.3864V56.5H61.1619V52.3864L56.9176 44.8636Z" fill="white"/>
<path d="M50 30.0556H20.4444V0.5H50V30.0556Z" fill="#D9D9D9"/>
<path d="M15 3.83333V35.5H46.6667M20.4444 30.0556H50V0.5H20.4444V30.0556Z" stroke="#D9D9D9" stroke-linecap="round" stroke-linejoin="round"/>
<path d="M31.1111 20.6111V7.94446L39.5555 14.2778L31.1111 20.6111Z" fill="black" stroke="#D9D9D9" stroke-linejoin="round"/>
</svg>
