<svg width="60" height="111" viewBox="0 0 60 111" fill="none" xmlns="http://www.w3.org/2000/svg">
<path d="M1.17157 104.172C-0.390526 105.734 -0.390526 108.266 1.17157 109.828C2.73367 111.391 5.26633 111.391 6.82843 109.828L1.17157 104.172ZM55.5 55.5L58.3284 58.3284C59.8905 56.7663 59.8905 54.2337 58.3284 52.6716L55.5 55.5ZM6.82844 1.17157C5.26634 -0.39053 2.73368 -0.39053 1.17158 1.17157C-0.390517 2.73367 -0.390517 5.26632 1.17158 6.82843L6.82844 1.17157ZM6.82843 109.828L58.3284 58.3284L52.6716 52.6716L1.17157 104.172L6.82843 109.828ZM58.3284 52.6716L6.82844 1.17157L1.17158 6.82843L52.6716 58.3284L58.3284 52.6716Z" fill="#FDFDFD" fill-opacity="0.2"/>
</svg>
