<svg width="69" height="60" viewBox="0 0 69 60" fill="none" xmlns="http://www.w3.org/2000/svg">
<path d="M0.974437 59.5V47.8636H5.63353C6.48959 47.8636 7.2036 47.9905 7.77557 48.2443C8.34754 48.4981 8.77747 48.8504 9.06535 49.3011C9.35323 49.7481 9.49716 50.2633 9.49716 50.8466C9.49716 51.3011 9.40626 51.7008 9.22444 52.0455C9.04262 52.3864 8.79262 52.6667 8.47444 52.8864C8.16004 53.1023 7.8002 53.2557 7.39489 53.3466V53.4602C7.83807 53.4792 8.25285 53.6042 8.63921 53.8352C9.02936 54.0663 9.34565 54.3902 9.58807 54.8068C9.8305 55.2197 9.95171 55.7121 9.95171 56.2841C9.95171 56.9015 9.7983 57.4527 9.49148 57.9375C9.18845 58.4186 8.73959 58.7992 8.14489 59.0795C7.5502 59.3598 6.81724 59.5 5.94603 59.5H0.974437ZM3.43466 57.4886H5.44035C6.12595 57.4886 6.62595 57.358 6.94035 57.0966C7.25474 56.8314 7.41194 56.4792 7.41194 56.0398C7.41194 55.7178 7.33429 55.4337 7.17898 55.1875C7.02368 54.9413 6.80209 54.7481 6.51421 54.608C6.23012 54.4678 5.8911 54.3977 5.49716 54.3977H3.43466V57.4886ZM3.43466 52.733H5.25853C5.59565 52.733 5.89489 52.6742 6.15626 52.5568C6.42141 52.4356 6.62974 52.2652 6.78126 52.0455C6.93656 51.8258 7.01421 51.5625 7.01421 51.2557C7.01421 50.8352 6.86459 50.4962 6.56535 50.2386C6.26989 49.9811 5.84944 49.8523 5.30398 49.8523H3.43466V52.733ZM11.5526 59.5V47.8636H16.1435C17.0223 47.8636 17.7723 48.0208 18.3935 48.3352C19.0185 48.6458 19.4939 49.0871 19.8196 49.6591C20.1492 50.2273 20.3139 50.8958 20.3139 51.6648C20.3139 52.4375 20.1473 53.1023 19.8139 53.6591C19.4806 54.2121 18.9976 54.6364 18.3651 54.9318C17.7363 55.2273 16.9749 55.375 16.081 55.375H13.0071V53.3977H15.6832C16.1529 53.3977 16.5431 53.3333 16.8537 53.2045C17.1643 53.0758 17.3954 52.8826 17.5469 52.625C17.7022 52.3674 17.7798 52.0473 17.7798 51.6648C17.7798 51.2784 17.7022 50.9527 17.5469 50.6875C17.3954 50.4223 17.1624 50.2216 16.848 50.0852C16.5374 49.9451 16.1454 49.875 15.6719 49.875H14.0128V59.5H11.5526ZM17.8367 54.2045L20.7287 59.5H18.0128L15.1832 54.2045H17.8367ZM32.7457 53.6818C32.7457 54.9508 32.5052 56.0303 32.0242 56.9205C31.5469 57.8106 30.8954 58.4905 30.0696 58.9602C29.2476 59.4261 28.3234 59.6591 27.2969 59.6591C26.2628 59.6591 25.3348 59.4242 24.5128 58.9545C23.6908 58.4848 23.0412 57.8049 22.5639 56.9148C22.0867 56.0246 21.848 54.947 21.848 53.6818C21.848 52.4129 22.0867 51.3333 22.5639 50.4432C23.0412 49.553 23.6908 48.875 24.5128 48.4091C25.3348 47.9394 26.2628 47.7045 27.2969 47.7045C28.3234 47.7045 29.2476 47.9394 30.0696 48.4091C30.8954 48.875 31.5469 49.553 32.0242 50.4432C32.5052 51.3333 32.7457 52.4129 32.7457 53.6818ZM30.2514 53.6818C30.2514 52.8598 30.1283 52.1667 29.8821 51.6023C29.6397 51.0379 29.2969 50.6098 28.8537 50.3182C28.4105 50.0265 27.8916 49.8807 27.2969 49.8807C26.7022 49.8807 26.1832 50.0265 25.7401 50.3182C25.2969 50.6098 24.9522 51.0379 24.706 51.6023C24.4635 52.1667 24.3423 52.8598 24.3423 53.6818C24.3423 54.5038 24.4635 55.197 24.706 55.7614C24.9522 56.3258 25.2969 56.7538 25.7401 57.0455C26.1832 57.3371 26.7022 57.483 27.2969 57.483C27.8916 57.483 28.4105 57.3371 28.8537 57.0455C29.2969 56.7538 29.6397 56.3258 29.8821 55.7614C30.1283 55.197 30.2514 54.5038 30.2514 53.6818ZM36.75 59.5L33.4205 47.8636H36.108L38.0341 55.9489H38.1307L40.2557 47.8636H42.5568L44.6761 55.9659H44.7784L46.7046 47.8636H49.3921L46.0625 59.5H43.6648L41.4489 51.892H41.358L39.1477 59.5H36.75ZM56.9119 51.2102C56.8665 50.7519 56.6714 50.3958 56.3267 50.142C55.982 49.8883 55.5142 49.7614 54.9233 49.7614C54.5218 49.7614 54.1828 49.8182 53.9063 49.9318C53.6297 50.0417 53.4176 50.1951 53.2699 50.392C53.126 50.589 53.054 50.8125 53.054 51.0625C53.0464 51.2708 53.09 51.4527 53.1847 51.608C53.2831 51.7633 53.4176 51.8977 53.5881 52.0114C53.7585 52.1212 53.9555 52.2178 54.179 52.3011C54.4025 52.3807 54.6411 52.4489 54.8949 52.5057L55.9403 52.7557C56.4479 52.8693 56.9138 53.0208 57.3381 53.2102C57.7623 53.3996 58.1297 53.6326 58.4403 53.9091C58.751 54.1856 58.9915 54.5114 59.1619 54.8864C59.3362 55.2614 59.4252 55.6913 59.429 56.1761C59.4252 56.8883 59.2434 57.5057 58.8835 58.0284C58.5275 58.5473 58.0123 58.9508 57.3381 59.2386C56.6676 59.5227 55.8589 59.6648 54.9119 59.6648C53.9725 59.6648 53.1544 59.5208 52.4574 59.233C51.7642 58.9451 51.2225 58.5189 50.8324 57.9545C50.446 57.3864 50.2434 56.6837 50.2244 55.8466H52.6051C52.6316 56.2367 52.7434 56.5625 52.9403 56.8239C53.1411 57.0814 53.4081 57.2765 53.7415 57.4091C54.0786 57.5379 54.4593 57.6023 54.8835 57.6023C55.3002 57.6023 55.6619 57.5417 55.9688 57.4205C56.2794 57.2992 56.5199 57.1307 56.6903 56.9148C56.8608 56.6989 56.946 56.4508 56.946 56.1705C56.946 55.9091 56.8684 55.6894 56.7131 55.5114C56.5616 55.3333 56.3381 55.1818 56.0426 55.0568C55.751 54.9318 55.393 54.8182 54.9688 54.7159L53.7017 54.3977C52.7206 54.1591 51.946 53.786 51.3778 53.2784C50.8097 52.7708 50.5275 52.0871 50.5313 51.2273C50.5275 50.5227 50.715 49.9072 51.0938 49.3807C51.4763 48.8542 52.001 48.4432 52.6676 48.1477C53.3343 47.8523 54.0919 47.7045 54.9403 47.7045C55.804 47.7045 56.5578 47.8523 57.2017 48.1477C57.8494 48.4432 58.3532 48.8542 58.7131 49.3807C59.0729 49.9072 59.2585 50.517 59.2699 51.2102H56.9119ZM61.0838 59.5V47.8636H68.9247V49.892H63.544V52.6648H68.5213V54.6932H63.544V57.4716H68.9474V59.5H61.0838Z" fill="white"/>
<path d="M43.4328 35.5265C43.6316 35.7182 43.9481 35.7126 44.1398 35.5138C44.3316 35.3151 44.3259 34.9986 44.1272 34.8068L39.168 30.0224C39.8166 29.2392 40.22 28.2295 40.22 27.0417C40.22 23.9871 37.6004 22.2083 35.08 22.2083C32.5596 22.2083 29.94 23.9871 29.94 27.0417C29.94 30.0962 32.5596 31.875 35.08 31.875C36.2892 31.875 37.5047 31.4733 38.4524 30.7215L43.4328 35.5265ZM26.8 9.66666H42.2C43.0284 9.66666 43.7 8.99508 43.7 8.16666V7.45832C43.7 6.6299 43.0284 5.95832 42.2 5.95832H26.8C25.9716 5.95832 25.3 6.6299 25.3 7.45832V8.16666C25.3 8.99508 25.9716 9.66666 26.8 9.66666ZM42.2 8.66666H26.8C26.5239 8.66666 26.3 8.4428 26.3 8.16666V7.45832C26.3 7.18218 26.5239 6.95832 26.8 6.95832H42.2C42.4761 6.95832 42.7 7.18218 42.7 7.45832V8.16666C42.7 8.4428 42.4761 8.66666 42.2 8.66666ZM26.8 14.5417H42.2C42.4761 14.5417 42.7 14.7655 42.7 15.0417V15.75C42.7 16.0261 42.4761 16.25 42.2 16.25H26.8C26.5239 16.25 26.3 16.0261 26.3 15.75V15.0417C26.3 14.7655 26.5239 14.5417 26.8 14.5417ZM42.2 13.5417H26.8C25.9716 13.5417 25.3 14.2132 25.3 15.0417V15.75C25.3 16.5784 25.9716 17.25 26.8 17.25H42.2C43.0284 17.25 43.7 16.5784 43.7 15.75V15.0417C43.7 14.2132 43.0284 13.5417 42.2 13.5417ZM35.08 23.2083C37.1996 23.2083 39.22 24.6795 39.22 27.0417C39.22 28.1481 38.7868 29.0384 38.121 29.6837C37.3341 30.4463 36.2112 30.875 35.08 30.875C32.9604 30.875 30.94 29.4038 30.94 27.0417C30.94 24.6795 32.9604 23.2083 35.08 23.2083ZM21 1H48C48.2761 1 48.5 1.22386 48.5 1.5V38.5C48.5 38.7761 48.2761 39 48 39H21C20.7239 39 20.5 38.7761 20.5 38.5V1.5C20.5 1.22386 20.7239 1 21 1Z" fill="#D9D9D9" stroke="black" stroke-linecap="round" stroke-linejoin="round"/>
</svg>
