<svg width="55" height="55" viewBox="0 0 55 55" fill="none" xmlns="http://www.w3.org/2000/svg">
<path fill-rule="evenodd" clip-rule="evenodd" d="M17.1074 2.44288C19.7955 2.31913 20.6526 2.29163 27.5001 2.29163C34.3476 2.29163 35.2047 2.32142 37.8905 2.44288C40.5763 2.56433 42.4097 2.99288 44.0138 3.61392C45.6936 4.24871 47.2176 5.241 48.478 6.52433C49.7613 7.78246 50.7513 9.30413 51.3838 10.9862C52.0072 12.5904 52.4334 14.4237 52.5572 17.105C52.6809 19.7977 52.7084 20.6548 52.7084 27.5C52.7084 34.3475 52.6786 35.2045 52.5572 37.8927C52.4357 40.5739 52.0072 42.4073 51.3838 44.0114C50.7513 45.6937 49.7597 47.2179 48.478 48.4779C47.2176 49.7612 45.6936 50.7512 44.0138 51.3837C42.4097 52.007 40.5763 52.4333 37.8951 52.557C35.2047 52.6808 34.3476 52.7083 27.5001 52.7083C20.6526 52.7083 19.7955 52.6785 17.1074 52.557C14.4261 52.4356 12.5928 52.007 10.9886 51.3837C9.30636 50.7511 7.78217 49.7595 6.52216 48.4779C5.2397 47.219 4.24726 45.6955 3.61404 44.0137C2.993 42.4095 2.56675 40.5762 2.443 37.895C2.31925 35.2023 2.29175 34.3452 2.29175 27.5C2.29175 20.6525 2.32154 19.7954 2.443 17.1095C2.56446 14.4237 2.993 12.5904 3.61404 10.9862C4.2482 9.30431 5.2414 7.78089 6.52446 6.52204C7.78267 5.23986 9.30533 4.24743 10.9863 3.61392C12.5905 2.99288 14.4238 2.56663 17.1051 2.44288H17.1074ZM37.6865 6.98038C35.0282 6.85892 34.2307 6.83371 27.5001 6.83371C20.7695 6.83371 19.972 6.85892 17.3136 6.98038C14.8547 7.09267 13.5209 7.50288 12.6317 7.84892C11.4561 8.30725 10.6151 8.85038 9.73279 9.73267C8.89643 10.5463 8.25279 11.5369 7.84904 12.6316C7.503 13.5208 7.09279 14.8545 6.9805 17.3135C6.85904 19.9718 6.83383 20.7693 6.83383 27.5C6.83383 34.2306 6.85904 35.0281 6.9805 37.6864C7.09279 40.1454 7.503 41.4791 7.84904 42.3683C8.25237 43.4614 8.89633 44.4537 9.73279 45.2673C10.5463 46.1037 11.5386 46.7477 12.6317 47.151C13.5209 47.497 14.8547 47.9073 17.3136 48.0195C19.972 48.141 20.7672 48.1662 27.5001 48.1662C34.233 48.1662 35.0282 48.141 37.6865 48.0195C40.1455 47.9073 41.4793 47.497 42.3684 47.151C43.544 46.6927 44.3851 46.1495 45.2674 45.2673C46.1038 44.4537 46.7478 43.4614 47.1511 42.3683C47.4972 41.4791 47.9074 40.1454 48.0197 37.6864C48.1411 35.0281 48.1663 34.2306 48.1663 27.5C48.1663 20.7693 48.1411 19.9718 48.0197 17.3135C47.9074 14.8545 47.4972 13.5208 47.1511 12.6316C46.6928 11.456 46.1497 10.615 45.2674 9.73267C44.4537 8.89637 43.4632 8.25273 42.3684 7.84892C41.4793 7.50288 40.1455 7.09267 37.6865 6.98038ZM24.2803 35.271C26.0785 36.0195 28.0807 36.1206 29.9451 35.5568C31.8095 34.9931 33.4204 33.7996 34.5025 32.1801C35.5847 30.5606 36.071 28.6157 35.8785 26.6775C35.686 24.7393 34.8266 22.928 33.447 21.5531C32.5675 20.6742 31.5041 20.0012 30.3333 19.5826C29.1626 19.164 27.9136 19.0102 26.6762 19.1322C25.4389 19.2542 24.244 19.6491 23.1775 20.2884C22.1111 20.9277 21.1997 21.7954 20.5089 22.8292C19.8181 23.863 19.3651 25.0371 19.1825 26.267C18.9999 27.4968 19.0923 28.7519 19.453 29.9418C19.8137 31.1317 20.4337 32.2268 21.2684 33.1483C22.1031 34.0698 23.1318 34.7948 24.2803 35.271ZM18.338 18.3379C19.5412 17.1347 20.9696 16.1803 22.5416 15.5291C24.1136 14.878 25.7985 14.5428 27.5001 14.5428C29.2016 14.5428 30.8865 14.878 32.4586 15.5291C34.0306 16.1803 35.459 17.1347 36.6622 18.3379C37.8653 19.5411 38.8198 20.9694 39.4709 22.5415C40.1221 24.1135 40.4572 25.7984 40.4572 27.5C40.4572 29.2015 40.1221 30.8864 39.4709 32.4584C38.8198 34.0305 37.8653 35.4589 36.6622 36.662C34.2322 39.092 30.9365 40.4571 27.5001 40.4571C24.0636 40.4571 20.7679 39.092 18.338 36.662C15.9081 34.2321 14.5429 30.9364 14.5429 27.5C14.5429 24.0635 15.9081 20.7678 18.338 18.3379ZM43.3309 16.4725C43.6291 16.1912 43.8678 15.853 44.0329 15.4778C44.198 15.1027 44.2861 14.6982 44.2921 14.2883C44.2981 13.8785 44.2217 13.4716 44.0676 13.0918C43.9136 12.712 43.6848 12.367 43.395 12.0771C43.1052 11.7873 42.7601 11.5586 42.3803 11.4045C42.0005 11.2504 41.5936 11.1741 41.1838 11.18C40.7739 11.186 40.3695 11.2742 39.9943 11.4393C39.6191 11.6044 39.2809 11.8431 38.9997 12.1412C38.4527 12.7211 38.1532 13.4913 38.1648 14.2883C38.1764 15.0854 38.4982 15.8466 39.0619 16.4102C39.6256 16.9739 40.3867 17.2957 41.1838 17.3073C41.9808 17.3189 42.7511 17.0195 43.3309 16.4725Z" fill="black"/>
</svg>
