<svg width="64" height="57" viewBox="0 0 64 57" fill="none" xmlns="http://www.w3.org/2000/svg">
<path d="M0.372165 56.5V44.8636H1.78126V55.25H7.19035V56.5H0.372165ZM10.7813 44.8636V56.5H9.37216V44.8636H10.7813ZM13.6065 56.5V44.8636H17.6747C18.4853 44.8636 19.1539 45.0038 19.6804 45.2841C20.2069 45.5606 20.599 45.9337 20.8565 46.4034C21.1141 46.8693 21.2429 47.3864 21.2429 47.9545C21.2429 48.4545 21.1539 48.8674 20.9759 49.1932C20.8016 49.5189 20.5706 49.7765 20.2827 49.9659C19.9986 50.1553 19.6899 50.2955 19.3565 50.3864V50.5C19.7126 50.5227 20.0706 50.6477 20.4304 50.875C20.7903 51.1023 21.0914 51.428 21.3338 51.8523C21.5762 52.2765 21.6974 52.7955 21.6974 53.4091C21.6974 53.9924 21.5649 54.517 21.2997 54.983C21.0346 55.4489 20.616 55.8182 20.044 56.0909C19.4721 56.3636 18.7278 56.5 17.8111 56.5H13.6065ZM15.0156 55.25H17.8111C18.7315 55.25 19.3849 55.072 19.7713 54.7159C20.1615 54.3561 20.3565 53.9205 20.3565 53.4091C20.3565 53.0152 20.2562 52.6515 20.0554 52.3182C19.8546 51.9811 19.5687 51.7121 19.1974 51.5114C18.8262 51.3068 18.3868 51.2045 17.8793 51.2045H15.0156V55.25ZM15.0156 49.9773H17.6293C18.0535 49.9773 18.4361 49.8939 18.777 49.7273C19.1217 49.5606 19.3944 49.3258 19.5952 49.0227C19.7997 48.7197 19.902 48.3636 19.902 47.9545C19.902 47.4432 19.724 47.0095 19.3679 46.6534C19.0118 46.2936 18.4474 46.1136 17.6747 46.1136H15.0156V49.9773ZM24.0128 56.5V44.8636H27.9446C28.8537 44.8636 29.5999 45.0189 30.1832 45.3295C30.7666 45.6364 31.1984 46.0587 31.4787 46.5966C31.759 47.1345 31.8992 47.7462 31.8992 48.4318C31.8992 49.1174 31.759 49.7254 31.4787 50.2557C31.1984 50.786 30.7685 51.2027 30.1889 51.5057C29.6094 51.8049 28.8689 51.9545 27.9673 51.9545H24.7855V50.6818H27.9219C28.5431 50.6818 29.0431 50.5909 29.4219 50.4091C29.8045 50.2273 30.081 49.9697 30.2514 49.6364C30.4257 49.2992 30.5128 48.8977 30.5128 48.4318C30.5128 47.9659 30.4257 47.5587 30.2514 47.2102C30.0772 46.8617 29.7988 46.5928 29.4162 46.4034C29.0336 46.2102 28.5279 46.1136 27.8992 46.1136H25.4219V56.5H24.0128ZM29.4901 51.2727L32.3537 56.5H30.7173L27.8992 51.2727H29.4901ZM34.7244 56.5H33.2472L37.5199 44.8636H38.9744L43.2472 56.5H41.7699L38.2926 46.7045H38.2017L34.7244 56.5ZM35.2699 51.9545H41.2244V53.2045H35.2699V51.9545ZM45.0597 56.5V44.8636H48.9915C49.9006 44.8636 50.6468 45.0189 51.2301 45.3295C51.8135 45.6364 52.2453 46.0587 52.5256 46.5966C52.8059 47.1345 52.946 47.7462 52.946 48.4318C52.946 49.1174 52.8059 49.7254 52.5256 50.2557C52.2453 50.786 51.8153 51.2027 51.2358 51.5057C50.6563 51.8049 49.9157 51.9545 49.0142 51.9545H45.8324V50.6818H48.9688C49.59 50.6818 50.09 50.5909 50.4688 50.4091C50.8513 50.2273 51.1278 49.9697 51.2983 49.6364C51.4725 49.2992 51.5597 48.8977 51.5597 48.4318C51.5597 47.9659 51.4725 47.5587 51.2983 47.2102C51.1241 46.8617 50.8456 46.5928 50.4631 46.4034C50.0805 46.2102 49.5748 46.1136 48.946 46.1136H46.4688V56.5H45.0597ZM50.5369 51.2727L53.4006 56.5H51.7642L48.946 51.2727H50.5369ZM53.9034 44.8636H55.5171L58.7443 50.2955H58.8807L62.108 44.8636H63.7216L59.5171 51.7045V56.5H58.108V51.7045L53.9034 44.8636Z" fill="white"/>
<path d="M13 3.83333V35.5H44.6667M18.4444 30.0556H48V0.5H18.4444V30.0556Z" stroke="white" stroke-linecap="round" stroke-linejoin="round"/>
<path d="M29.1111 20.6111V7.94446L37.5555 14.2778L29.1111 20.6111Z" stroke="white" stroke-linejoin="round"/>
</svg>
