<svg width="38" height="27" viewBox="0 0 38 27" fill="none" xmlns="http://www.w3.org/2000/svg">
<path d="M33 14.5C33.8284 14.5 34.5 13.8284 34.5 13C34.5 12.1716 33.8284 11.5 33 11.5V14.5ZM2.93934 11.9393C2.35355 12.5251 2.35355 13.4749 2.93934 14.0607L12.4853 23.6066C13.0711 24.1924 14.0208 24.1924 14.6066 23.6066C15.1924 23.0208 15.1924 22.0711 14.6066 21.4853L6.12132 13L14.6066 4.51472C15.1924 3.92893 15.1924 2.97919 14.6066 2.3934C14.0208 1.80761 13.0711 1.80761 12.4853 2.3934L2.93934 11.9393ZM33 11.5L4 11.5V14.5L33 14.5V11.5Z" fill="white" fill-opacity="0.8"/>
</svg>
