<svg width="51" height="51" viewBox="0 0 51 51" fill="none" xmlns="http://www.w3.org/2000/svg">
<path d="M42.6062 23.375H8.39375C7.27883 23.375 6.375 24.2788 6.375 25.3937V25.6063C6.375 26.7212 7.27883 27.625 8.39375 27.625H42.6062C43.7212 27.625 44.625 26.7212 44.625 25.6063V25.3937C44.625 24.2788 43.7212 23.375 42.6062 23.375Z" fill="black"/>
<path d="M42.6062 34H8.39375C7.27883 34 6.375 34.9038 6.375 36.0188V36.2312C6.375 37.3462 7.27883 38.25 8.39375 38.25H42.6062C43.7212 38.25 44.625 37.3462 44.625 36.2312V36.0188C44.625 34.9038 43.7212 34 42.6062 34Z" fill="black"/>
<path d="M42.6062 12.75H8.39375C7.27883 12.75 6.375 13.6538 6.375 14.7687V14.9813C6.375 16.0962 7.27883 17 8.39375 17H42.6062C43.7212 17 44.625 16.0962 44.625 14.9813V14.7687C44.625 13.6538 43.7212 12.75 42.6062 12.75Z" fill="black"/>
</svg>
