<svg width="57" height="43" viewBox="0 0 57 43" fill="none" xmlns="http://www.w3.org/2000/svg">
<rect width="57" height="43" rx="10" fill="black"/>
<path d="M9.26989 31.5V11.1364H13.5753V19.5384H22.3153V11.1364H26.6108V31.5H22.3153V23.0881H13.5753V31.5H9.26989ZM37.3793 31.5H30.1605V11.1364H37.4389C39.4872 11.1364 41.2505 11.544 42.7287 12.3594C44.2069 13.1681 45.3438 14.3314 46.1392 15.8494C46.9413 17.3674 47.3423 19.1837 47.3423 21.2983C47.3423 23.4195 46.9413 25.2424 46.1392 26.767C45.3438 28.2917 44.2003 29.4616 42.7088 30.277C41.224 31.0923 39.4474 31.5 37.3793 31.5ZM34.4659 27.8111H37.2003C38.473 27.8111 39.5436 27.5857 40.4119 27.1349C41.2869 26.6776 41.9432 25.9716 42.3807 25.017C42.8248 24.0559 43.0469 22.8163 43.0469 21.2983C43.0469 19.7936 42.8248 18.5639 42.3807 17.6094C41.9432 16.6548 41.2902 15.9522 40.4219 15.5014C39.5535 15.0507 38.483 14.8253 37.2102 14.8253H34.4659V27.8111Z" fill="white"/>
</svg>
