<svg width="60" height="111" viewBox="0 0 60 111" fill="none" xmlns="http://www.w3.org/2000/svg">
<path d="M58.3284 6.82843C59.8905 5.26633 59.8905 2.73367 58.3284 1.17157C56.7663 -0.390524 54.2337 -0.390524 52.6716 1.17157L58.3284 6.82843ZM4 55.5L1.17157 52.6716C-0.390524 54.2337 -0.390524 56.7663 1.17157 58.3284L4 55.5ZM52.6716 109.828C54.2337 111.391 56.7663 111.391 58.3284 109.828C59.8905 108.266 59.8905 105.734 58.3284 104.172L52.6716 109.828ZM52.6716 1.17157L1.17157 52.6716L6.82843 58.3284L58.3284 6.82843L52.6716 1.17157ZM1.17157 58.3284L52.6716 109.828L58.3284 104.172L6.82843 52.6716L1.17157 58.3284Z" fill="#FDFDFD" fill-opacity="0.2"/>
</svg>
