<svg width="51" height="51" viewBox="0 0 51 51" fill="none" xmlns="http://www.w3.org/2000/svg">
<path d="M34.765 29.75C34.935 28.3475 35.0625 26.945 35.0625 25.5C35.0625 24.055 34.935 22.6525 34.765 21.25H41.9475C42.2875 22.61 42.5 24.0338 42.5 25.5C42.5 26.9662 42.2875 28.39 41.9475 29.75M31.0037 41.565C32.2787 39.2062 33.2563 36.6562 33.9363 34H40.205C38.1462 37.5451 34.88 40.2305 31.0037 41.565ZM30.4725 29.75H20.5275C20.315 28.3475 20.1875 26.945 20.1875 25.5C20.1875 24.055 20.315 22.6313 20.5275 21.25H30.4725C30.6637 22.6313 30.8125 24.055 30.8125 25.5C30.8125 26.945 30.6637 28.3475 30.4725 29.75ZM25.5 42.415C23.7362 39.865 22.3125 37.0387 21.4412 34H29.5588C28.6875 37.0387 27.2638 39.865 25.5 42.415ZM17 17H10.795C12.8326 13.4453 16.0964 10.7557 19.975 9.435C18.7 11.7938 17.7437 14.3438 17 17ZM10.795 34H17C17.7437 36.6562 18.7 39.2062 19.975 41.565C16.1046 40.2298 12.8453 37.5439 10.795 34ZM9.0525 29.75C8.7125 28.39 8.5 26.9662 8.5 25.5C8.5 24.0338 8.7125 22.61 9.0525 21.25H16.235C16.065 22.6525 15.9375 24.055 15.9375 25.5C15.9375 26.945 16.065 28.3475 16.235 29.75M25.5 8.56375C27.2638 11.1138 28.6875 13.9613 29.5588 17H21.4412C22.3125 13.9613 23.7362 11.1138 25.5 8.56375ZM40.205 17H33.9363C33.2712 14.3681 32.2863 11.8275 31.0037 9.435C34.9137 10.7738 38.165 13.4725 40.205 17ZM25.5 4.25C13.7487 4.25 4.25 13.8125 4.25 25.5C4.25 31.1359 6.48883 36.5409 10.474 40.526C12.4472 42.4993 14.7898 44.0645 17.368 45.1324C19.9461 46.2004 22.7094 46.75 25.5 46.75C31.1359 46.75 36.5409 44.5112 40.526 40.526C44.5112 36.5409 46.75 31.1359 46.75 25.5C46.75 22.7094 46.2004 19.9461 45.1324 17.368C44.0645 14.7898 42.4993 12.4472 40.526 10.474C38.5528 8.50074 36.2102 6.93547 33.632 5.86756C31.0539 4.79965 28.2906 4.25 25.5 4.25Z" fill="black"/>
</svg>
