<svg width="35" height="35" viewBox="0 0 35 35" fill="none" xmlns="http://www.w3.org/2000/svg">
<path fill-rule="evenodd" clip-rule="evenodd" d="M23.8073 21.7277L31.6531 29.5736C31.9289 29.8495 32.0837 30.2237 32.0836 30.6139C32.0835 31.004 31.9284 31.3781 31.6524 31.6539C31.3764 31.9296 31.0022 32.0845 30.6121 32.0844C30.222 32.0842 29.8479 31.9291 29.5721 31.6531L21.7263 23.8073C19.3808 25.6239 16.4315 26.4788 13.4781 26.198C10.5248 25.9173 7.7893 24.5219 5.82821 22.2959C3.86712 20.0699 2.8277 17.1804 2.92142 14.2152C3.01513 11.25 4.23494 8.43189 6.33268 6.33415C8.43043 4.2364 11.2485 3.0166 14.2137 2.92288C17.1789 2.82917 20.0684 3.86858 22.2944 5.82967C24.5205 7.79077 25.9158 10.5262 26.1966 13.4796C26.4773 16.4329 25.6225 19.3823 23.8058 21.7277H23.8073ZM14.5833 23.3333C16.904 23.3333 19.1296 22.4115 20.7705 20.7705C22.4115 19.1296 23.3333 16.904 23.3333 14.5833C23.3333 12.2627 22.4115 10.0371 20.7705 8.39616C19.1296 6.75522 16.904 5.83335 14.5833 5.83335C12.2627 5.83335 10.0371 6.75522 8.39616 8.39616C6.75521 10.0371 5.83334 12.2627 5.83334 14.5833C5.83334 16.904 6.75521 19.1296 8.39616 20.7705C10.0371 22.4115 12.2627 23.3333 14.5833 23.3333Z" fill="black"/>
</svg>
